<?xml version="1.0" encoding="UTF-8" standalone="no" ?>
<!DOCTYPE svg PUBLIC "-//W3C//DTD SVG 1.1//EN" "http://www.w3.org/Graphics/SVG/1.1/DTD/svg11.dtd">
<svg xmlns="http://www.w3.org/2000/svg" xmlns:xlink="http://www.w3.org/1999/xlink" version="1.1" width="256"
  height="256" viewBox="0 0 256 256" xml:space="preserve">
  <style>
    path {
      fill: currentColor;
      stroke: currentColor;
      stroke-width: 0;
      stroke-dasharray: none;
      stroke-linecap: butt;
      stroke-dashoffset: 0;
      stroke-linejoin: miter;
      stroke-miterlimit: 4;
      fill-rule: nonzero;
      opacity: 1;
    }
  </style>
  <desc>Created with Fabric.js 4.6.0</desc>
  <defs>
  </defs>
  <g transform="matrix(1 0 0 1 128 128)" id="ushgvvLISTXbLd-OSpSa6">
    <path
      vector-effect="non-scaling-stroke" transform=" translate(-125, -125)"
      d="M 137.5 12.5 C 137.5 19.4 131.9 25 125 25 C 124.96233 25 124.9247 24.99983 124.88711 24.9995 L 37.83182000000001 24.9995 C 30.744730000000008 24.9995 24.99950000000001 30.74472 24.99950000000001 37.83182 L 24.99950000000001 212.16818 C 24.99950000000001 219.25527 30.744720000000008 225.00050000000002 37.83182000000001 225.00050000000002 L 212.16818 225.00050000000002 C 219.25527 225.00050000000002 225.00050000000002 219.25528000000003 225.00050000000002 212.16818 L 225.00050000000002 125.11289000000001 C 225.00017000000003 125.07530000000001 225.00000000000003 125.03767 225.00000000000003 125.00000000000001 C 225.00000000000003 118.10000000000001 230.60000000000002 112.50000000000001 237.50000000000003 112.50000000000001 C 244.40000000000003 112.50000000000001 250.00000000000003 118.10000000000001 250.00000000000003 125.00000000000001 C 250.00000000000003 125.00532000000001 250.00000000000003 125.01065000000001 249.99999000000003 125.01597000000001 L 249.99999000000003 233.95967000000002 C 249.99999000000003 242.81850000000003 242.81849000000003 249.99999000000003 233.95967000000002 249.99999000000003 L 16.04032000000001 249.99999000000003 C 7.181490000000009 249.99999000000003 7.105427357601002e-15 242.81849000000003 7.105427357601002e-15 233.95967000000002 L 7.105427357601002e-15 16.04032000000001 C 7.105427357601002e-15 7.181490000000009 7.181500000000007 7.105427357601002e-15 16.04032000000001 7.105427357601002e-15 L 125.00000000000001 7.105427357601002e-15 C 131.9 7.105427357601002e-15 137.5 5.600000000000007 137.5 12.500000000000007 z"
      stroke-linecap="round" />
  </g>
  <g transform="matrix(0.71 0.71 -0.71 0.71 202.11 53.89)" id="7HvHvi9D0obBW40vV1UGH">
    <path
    
      vector-effect="non-scaling-stroke" transform=" translate(-56.6, -66.59)"
      d="M 3.65928 65.30904 C -1.21976 60.42999999999999 -1.21976 52.51040999999999 3.65928 47.63137 L 47.85345 3.437199999999997 L 47.856190000000005 3.4399399999999973 C 50.29968 1.1142599999999971 53.45571 -0.03216000000000285 56.601670000000006 0.0006899999999974149 C 59.845040000000004 -0.033210000000002585 63.09913 1.1863199999999974 65.57209 3.659279999999997 L 109.76626 47.853449999999995 L 109.76352 47.85619 C 114.42208 52.75073 114.34897 60.504239999999996 109.54418 65.30902999999999 C 104.73939 70.11381999999999 96.98586999999999 70.18693999999999 92.09134 65.52837 L 92.0886 65.53111 L 69.10173 42.54424 L 69.10173 120.64787 L 69.10169 120.64787 C 69.10171000000001 120.65787 69.10173 120.66787 69.10173 120.67787 C 69.10173 127.57787 63.50173 133.17786999999998 56.60173 133.17786999999998 C 49.701730000000005 133.17786999999998 44.10173 127.57786999999999 44.10173 120.67786999999998 C 44.10173 120.66786999999998 44.10174000000001 120.65786999999999 44.10177 120.64786999999998 L 44.10173 120.64786999999998 L 44.10173 42.54424999999998 L 21.336950000000005 65.30902999999998 C 16.457910000000005 70.18806999999998 8.538320000000006 70.18806999999998 3.659280000000006 65.30902999999998 z"
      stroke-linecap="round" />
  </g>
  <g transform="matrix(1.39 0 0 1.39 115 141)" id="QJxA8rZKy9hfckobzMIWn">
    <path
      vector-effect="non-scaling-stroke" transform=" translate(-40, -40)"
      d="M 40.826 0.326 L 79.199 36.161 C 80.002 36.911 79.471 38.256 78.373 38.256 L 73.129 38.256 C 72.46000000000001 38.256 71.918 38.798 71.918 39.467 L 71.918 78.78999999999999 C 71.918 79.45899999999999 71.376 80.00099999999999 70.70700000000001 80.00099999999999 L 55.755 80.00099999999999 C 55.086000000000006 80.00099999999999 54.544000000000004 79.45899999999999 54.544000000000004 78.78999999999999 L 54.544000000000004 49.552 C 54.544000000000004 46.261 51.876000000000005 43.593 48.58500000000001 43.593 L 31.414 43.593 C 28.123 43.593 25.455000000000002 46.261 25.455000000000002 49.55200000000001 L 25.455000000000002 78.789 C 25.455000000000002 79.458 24.913 80 24.244000000000003 80 L 9.293 80 C 8.623999999999999 80 8.081999999999999 79.458 8.081999999999999 78.789 L 8.081999999999999 39.467 C 8.081999999999999 38.798 7.539999999999999 38.256 6.870999999999999 38.256 L 1.627 38.256 C 0.528 38.256 -0.0020000000000000018 36.911 0.801 36.161 L 39.174 0.326 C 39.639 -0.109 40.361 -0.109 40.826 0.326 z"
      stroke-linecap="round" />
  </g>
</svg>